<?xml version="1.0" encoding="UTF-8" standalone="no"?>
<svg width="128" height="128" viewBox="0 0 128 128" xmlns="http://www.w3.org/2000/svg">
  <defs>
    <linearGradient id="gradientBg" x1="0%" y1="0%" x2="100%" y2="100%">
      <stop offset="0%" stop-color="#6a11cb"/>
      <stop offset="100%" stop-color="#2575fc"/>
    </linearGradient>
  </defs>
  
  <!-- 背景圆形 -->
  <circle cx="64" cy="64" r="60" fill="url(#gradientBg)"/>
  
  <!-- 视频图片转换图标 -->
  <g fill="white">
    <!-- 视频符号 -->
    <rect x="28" y="32" width="40" height="30" rx="4" ry="4"/>
    <polygon points="80,47 96,36 96,58 80,47"/>
    
    <!-- GIF文字 -->
    <path d="M34,80 C34,76 36,74 40,74 L60,74 C64,74 66,76 66,80 L66,86 C66,90 64,92 60,92 L40,92 C36,92 34,90 34,86 Z M42,80 L42,86 L58,86 L58,80 Z" />
    <path d="M68,74 L76,74 L76,92 L68,92 Z" />
    <path d="M78,74 L86,74 L86,92 L78,92 Z M78,80 L86,80 Z" />
    
    <!-- 转换箭头 -->
    <path d="M50,62 L64,70 L50,78 Z" />
    <rect x="64" y="66" width="14" height="8" />
  </g>
</svg> 